<svg xmlns="http://www.w3.org/2000/svg" xmlns:xlink="http://www.w3.org/1999/xlink" width="520" height="302" viewBox="0 0 520 302">
  <defs>
    <filter id="矩形_15" x="0" y="0" width="439" height="229" filterUnits="userSpaceOnUse">
      <feOffset dy="18" input="SourceAlpha"/>
      <feGaussianBlur stdDeviation="30" result="blur"/>
      <feFlood flood-opacity="0.051"/>
      <feComposite operator="in" in2="blur"/>
      <feComposite in="SourceGraphic"/>
    </filter>
    <filter id="矩形_2318" x="81" y="73" width="439" height="229" filterUnits="userSpaceOnUse">
      <feOffset dy="18" input="SourceAlpha"/>
      <feGaussianBlur stdDeviation="30" result="blur-2"/>
      <feFlood flood-opacity="0.051"/>
      <feComposite operator="in" in2="blur-2"/>
      <feComposite in="SourceGraphic"/>
    </filter>
  </defs>
  <g id="组_433" data-name="组 433" transform="translate(90 -234)">
    <g id="组_432" data-name="组 432">
      <g id="组_431" data-name="组 431">
        <g id="组_430" data-name="组 430">
          <g transform="matrix(1, 0, 0, 1, -90, 234)" filter="url(#矩形_15)">
            <path id="矩形_15-2" data-name="矩形 15" d="M0,0H234.5A24.5,24.5,0,0,1,259,24.5v0A24.5,24.5,0,0,1,234.5,49H0a0,0,0,0,1,0,0V0A0,0,0,0,1,0,0Z" transform="translate(90 72)" fill="#fff"/>
          </g>
          <line id="直线_39" data-name="直线 39" x2="9" y2="9" transform="translate(231.5 321.5)" fill="none" stroke="#707070" stroke-linecap="round" stroke-width="1"/>
        </g>
        <g transform="matrix(1, 0, 0, 1, -90, 234)" filter="url(#矩形_2318)">
          <path id="矩形_2318-2" data-name="矩形 2318" d="M24.5,0H259a0,0,0,0,1,0,0V49a0,0,0,0,1,0,0H24.5A24.5,24.5,0,0,1,0,24.5v0A24.5,24.5,0,0,1,24.5,0Z" transform="translate(171 145)" fill="#fff"/>
        </g>
        <line id="直线_40" data-name="直线 40" y1="9" x2="9" transform="translate(231.5 330.5)" fill="none" stroke="#707070" stroke-linecap="round" stroke-width="1"/>
      </g>
      <text id="校园认证" transform="translate(82 336)" fill="#333" font-size="14" font-family="YuGothicUI-Regular, Yu Gothic UI"><tspan x="0" y="0">校园</tspan><tspan y="0" font-family="MicrosoftJhengHeiUIRegular, Microsoft JhengHei UI">认证</tspan></text>
      <text id="问题反馈_联系我们" data-name="问题反馈&amp;联系我们" transform="translate(115 409)" fill="#333" font-size="14" font-family="MicrosoftJhengHeiUIRegular, Microsoft JhengHei UI"><tspan x="0" y="0">问题</tspan><tspan y="0" font-family="YuGothicUI-Regular, Yu Gothic UI">反</tspan><tspan y="0">馈</tspan><tspan y="0" font-family="SegoeUI, Segoe UI">&amp;</tspan><tspan y="0">联</tspan><tspan y="0" font-family="YuGothicUI-Regular, Yu Gothic UI">系我</tspan><tspan y="0">们</tspan></text>
      <path id="Combined-Shape" d="M1515.9,268.3a.7.7,0,0,1-1.4,0v-1.4a2.1,2.1,0,0,0-2.1-2.1h-4.9a2.1,2.1,0,0,0-2.1,2.1v1.4a.7.7,0,0,1-1.4,0v-1.4a3.5,3.5,0,0,1,3.5-3.5h4.9a3.5,3.5,0,0,1,3.5,3.5Zm-5.95-6.3a3.5,3.5,0,1,1,3.5-3.5A3.5,3.5,0,0,1,1509.95,262Zm0-1.4a2.1,2.1,0,1,0-2.1-2.1A2.1,2.1,0,0,0,1509.95,260.6Z" transform="translate(-1468 68)" fill="#333"/>
    </g>
    <path id="answer" d="M184.894,192.773l.07,2a10.456,10.456,0,0,0,9.795-10.5l-2.057.072a.666.666,0,0,0-.078.008,8.416,8.416,0,0,1-.253,1.952c.135.152.382.409.823.825l.5.469-.286.622a11.415,11.415,0,0,1-4.654,5l-.7.406-.514-.625q-.316-.393-.664-.758C186.317,192.432,184.893,192.737,184.894,192.773Zm-.209,3.914a1.585,1.585,0,0,1-1.615-1.566l-.079-2.28a2.191,2.191,0,0,1,.49-1.7,1.544,1.544,0,0,1,1.133-.417,4.745,4.745,0,0,0,1.935-.4c.671-.364,1.3.132,1.918.817a9.538,9.538,0,0,0,2.9-3.13c-.8-.794-1.117-1.28-.934-1.867a6.525,6.525,0,0,0,.278-2.112c-.036-1.006.939-1.566,1.919-1.6l2.343-.083a1.587,1.587,0,0,1,1.678,1.565,12.361,12.361,0,0,1-11.908,12.77Z" transform="translate(108 214.226)"/>
  </g>
</svg>
