<svg xmlns="http://www.w3.org/2000/svg" width="40" height="49.407" viewBox="0 0 40 49.407">
  <defs>
    <style>
      .cls-1 {
        opacity: 0.66;
      }

      .cls-2 {
        fill: #333;
        font-size: 8px;
        font-family: MicrosoftYaHei, Microsoft YaHei;
        opacity: 0.8;
      }
    </style>
  </defs>
  <g id="组_507" data-name="组 507" transform="translate(1.78 -39.608)">
    <path id="付款" class="cls-1" d="M23.374,53.266a.383.383,0,0,0-.383.383v2.3a1.919,1.919,0,0,1-1.916,1.916h-2.3a.383.383,0,1,0,0,.766h2.3a2.686,2.686,0,0,0,2.683-2.683v-2.3a.383.383,0,0,0-.383-.383Zm-20.7-9.2a.383.383,0,0,0,.383-.383v-2.3a1.918,1.918,0,0,1,1.916-1.916h2.3a.383.383,0,1,0,0-.766h-2.3A2.686,2.686,0,0,0,2.3,41.386v2.3a.383.383,0,0,0,.383.383Zm4.6,13.8h-2.3a1.919,1.919,0,0,1-1.916-1.916v-2.3a.383.383,0,1,0-.766,0v2.3a2.686,2.686,0,0,0,2.683,2.683h2.3a.383.383,0,0,0,0-.767ZM21.075,38.7h-2.3a.383.383,0,1,0,0,.766h2.3a1.919,1.919,0,0,1,1.916,1.916v2.3a.383.383,0,1,0,.767,0v-2.3A2.686,2.686,0,0,0,21.075,38.7ZM5.745,42.535H7.661v6.132H5.745V42.535Zm3.066,0h1.15v6.132H8.811Zm2.3,0h1.916v6.132H11.111Zm3.066,0h3.066v6.132H14.177Zm4.216,0h1.916v6.132H18.392ZM5.745,50.967H7.661V54.8H5.745V50.967Zm3.066,0h1.15V54.8H8.811Zm2.3,0h1.916V54.8H11.111Zm3.066,0h3.066V54.8H14.177Zm4.216,0h1.916V54.8H18.392Zm4.6-1.15a.383.383,0,0,0-.383-.383H3.446a.383.383,0,0,0,0,.767H22.608A.383.383,0,0,0,22.991,49.817Z" transform="translate(5.745 0.905)"/>
    <text id="待拼团靠岸_" data-name="待拼团靠岸
" class="cls-2" transform="translate(18.22 77.015)"><tspan x="-20" y="0">待拼团靠岸</tspan><tspan x="0" y="10"></tspan></text>
  </g>
</svg>
