<svg xmlns="http://www.w3.org/2000/svg" width="40" height="48.803" viewBox="0 0 40 48.803">
  <defs>
    <style>
      .cls-1, .cls-2 {
        opacity: 0.8;
      }

      .cls-2 {
        fill: #333;
        font-size: 8px;
        font-family: MicrosoftYaHei, Microsoft YaHei;
      }
    </style>
  </defs>
  <g id="组_508" data-name="组 508" transform="translate(-59.189 -40.212)">
    <path id="销售退货是否需要原单" class="cls-1" d="M78.024,21.722H79.3v.85h-.883a.594.594,0,0,0-.589.621.615.615,0,0,0,.589.621h3.565a.594.594,0,0,0,.589-.621.615.615,0,0,0-.589-.621H81.1v-.85h1.308A.594.594,0,0,0,83,21.1a.615.615,0,0,0-.589-.621H78.024a.594.594,0,0,0-.589.621.638.638,0,0,0,.589.621h0Zm-2.617,5.4a.666.666,0,0,0,.589.72h8.439a.734.734,0,0,0,0-1.439H76a.666.666,0,0,0-.589.72Zm0,3.336a.666.666,0,0,0,.589.72h8.439a.734.734,0,0,0,0-1.439H76a.666.666,0,0,0-.589.72Zm0,3.271a.666.666,0,0,0,.589.72h5.168a.734.734,0,0,0,0-1.439H76a.666.666,0,0,0-.589.72Zm13.313,1.963V24.142a2.693,2.693,0,0,0-.229-.916,2.314,2.314,0,0,0-1.079-1.145,2.93,2.93,0,0,0-1.178-.327H85.22a.586.586,0,0,0-.589.589c0,.327-.033.818.262.916h1.014a1.724,1.724,0,0,1,.654.2,1.306,1.306,0,0,1,.654,1.145V36.408a1.5,1.5,0,0,1-1.439,1.537H74.622a1.5,1.5,0,0,1-1.439-1.537V24.6a1.457,1.457,0,0,1,.654-1.145,1.322,1.322,0,0,1,.654-.2H75.5c.393-.2.262-.589.262-.916a.586.586,0,0,0-.589-.589H74.164a2.565,2.565,0,0,0-2.486,2.486V36.7a2.66,2.66,0,0,0,2.617,2.682H86.1A2.639,2.639,0,0,0,88.719,36.7V35.689h0Zm-7.1,1.7a.478.478,0,0,0,.72,0l3.565-3.467c.2-.2-.131-.523-.327-.752-.2-.2-.425-.36-.752,0l-2.878,2.78-.818-.785a.554.554,0,0,0-.752,0c-.2.2-.589.425,0,1.079l1.243,1.145ZM81.622,37.39Z" transform="translate(-1.026 19.733)"/>
    <text id="待确认支付_" data-name="待确认支付
" class="cls-2" transform="translate(79.189 77.015)"><tspan x="-20" y="0">待确认支付</tspan><tspan x="0" y="10"></tspan></text>
  </g>
</svg>
