<svg xmlns="http://www.w3.org/2000/svg" width="40" height="48.992" viewBox="0 0 40 48.992">
  <defs>
    <style>
      .cls-1, .cls-2 {
        opacity: 0.8;
      }

      .cls-2 {
        fill: #333;
        font-size: 8px;
        font-family: MicrosoftYaHei, Microsoft YaHei;
      }
    </style>
  </defs>
  <g id="组_509" data-name="组 509" transform="translate(-122.261 -40.024)">
    <path id="是否允许未完成盘点任务开单" class="cls-1" d="M90.478,57.732H77.291a2.2,2.2,0,0,1-2.2-2.2V40.881a2.2,2.2,0,0,1,2.2-2.2H90.478a2.2,2.2,0,0,1,2.2,2.2V55.534A2.2,2.2,0,0,1,90.478,57.732ZM77.291,40.148a.734.734,0,0,0-.733.733V55.534a.733.733,0,0,0,.733.733H90.478a.733.733,0,0,0,.733-.733V40.881a.733.733,0,0,0-.733-.733Zm9.547,8.811H78.751a.733.733,0,0,1,0-1.465h8.087a.733.733,0,0,1,0,1.465Zm2.15,4.365H78.748a.733.733,0,1,1,0-1.465H88.988a.733.733,0,0,1,0,1.465ZM78.017,43.476a1.1,1.1,0,1,0,1.1-1.1A1.1,1.1,0,0,0,78.017,43.476Zm4.748,0a1.1,1.1,0,0,0,2.2,0h0a1.1,1.1,0,0,0-2.2,0Zm4.765,0a1.1,1.1,0,1,0,1.1-1.1A1.1,1.1,0,0,0,87.53,43.476Z" transform="translate(59.159 1.34)"/>
    <text id="待完成体验_" data-name="待完成体验
" class="cls-2" transform="translate(142.261 77.015)"><tspan x="-20" y="0">待完成体验</tspan><tspan x="0" y="10"></tspan></text>
  </g>
</svg>
