<svg xmlns="http://www.w3.org/2000/svg" width="40" height="48.937" viewBox="0 0 40 48.937">
  <defs>
    <style>
      .cls-1, .cls-2 {
        opacity: 0.8;
      }

      .cls-2 {
        fill: #333;
        font-size: 8px;
        font-family: MicrosoftYaHei, Microsoft YaHei;
      }
    </style>
  </defs>
  <g id="组_510" data-name="组 510" transform="translate(-187.435 -40.079)">
    <path id="是否自动打印小票" class="cls-1" d="M49.672,42.346H46.741a.733.733,0,0,0,0,1.465h2.931a.733.733,0,0,0,0-1.465Zm0,2.931H46.741a.733.733,0,0,0,0,1.465h2.931a.733.733,0,0,0,0-1.465Zm-7.326,5.861H54.067a.733.733,0,0,0,0-1.465h-.733V39.416a.732.732,0,0,0-.733-.733H43.811a.733.733,0,0,0-.733.733V49.673h-.733a.733.733,0,1,0,0,1.465Zm2.2-10.99H51.87v9.524H44.543ZM57,43.468c0-1.369-.775-1.854-1.438-1.854h-.027a.721.721,0,0,0-.719.733.743.743,0,0,0,.663.728,1.342,1.342,0,0,1,.057.437l.627,10.557H40.252l.628-10.6a.793.793,0,0,1,.089-.395.732.732,0,0,0-.089-1.459,1.638,1.638,0,0,0-1.464,1.811l-.734,12.391A1.789,1.789,0,0,0,40.3,57.732H56.292c.716,0,1.438-.593,1.437-1.96L57,43.468Zm-.8,12.8-15.866,0a.546.546,0,0,1-.185-.412l.019-.325H56.249l.017.282a1.268,1.268,0,0,1-.069.451Z" transform="translate(159.343 1.395)"/>
    <text id="待进行评价_" data-name="待进行评价
" class="cls-2" transform="translate(207.435 77.015)"><tspan x="-20" y="0">待进行评价</tspan><tspan x="0" y="10"></tspan></text>
  </g>
</svg>
