<svg xmlns="http://www.w3.org/2000/svg" width="12.807" height="12.289" viewBox="0 0 12.807 12.289">
  <defs>
    <style>
      .cls-1 {
        fill: #fff;
      }
    </style>
  </defs>
  <g id="贝壳" transform="translate(-96.9 -112.5)">
    <path id="路径_1579" data-name="路径 1579" class="cls-1" d="M589.9,227.051a.445.445,0,0,1-.2-.048.452.452,0,0,1-.2-.609l2.835-5.6a.453.453,0,0,1,.808.409l-2.835,5.6A.455.455,0,0,1,589.9,227.051Z" transform="translate(-485.103 -106.413)"/>
    <path id="路径_1580" data-name="路径 1580" class="cls-1" d="M214.436,227.051a.452.452,0,0,1-.4-.249l-2.836-5.6a.453.453,0,0,1,.808-.409l2.836,5.6a.452.452,0,0,1-.4.657Z" transform="translate(-112.519 -106.413)"/>
    <path id="路径_1581" data-name="路径 1581" class="cls-1" d="M105.686,124.789h-4.764a.661.661,0,0,1-.485-.213.7.7,0,0,1-.18-.53l.07-.887a6.186,6.186,0,0,1-2.375-1.9,5.169,5.169,0,0,1-1.052-3.105,5.062,5.062,0,0,1,.512-2.221,5.649,5.649,0,0,1,1.386-1.8,7.026,7.026,0,0,1,9.011,0,5.67,5.67,0,0,1,1.386,1.8,5.062,5.062,0,0,1,.512,2.221,5.17,5.17,0,0,1-1.052,3.105,6.211,6.211,0,0,1-2.375,1.9l.069.887a.7.7,0,0,1-.18.53A.661.661,0,0,1,105.686,124.789ZM105.446,124.118Zm-4.267-.236h4.249l-.077-.973a.455.455,0,0,1,.281-.456,5.36,5.36,0,0,0,2.3-1.735,4.27,4.27,0,0,0,.872-2.563c0-2.615-2.466-4.744-5.5-4.744s-5.5,2.129-5.5,4.744a4.26,4.26,0,0,0,.872,2.563,5.337,5.337,0,0,0,2.3,1.735.452.452,0,0,1,.281.456Z" transform="translate(0 0)"/>
  </g>
</svg>
