<svg xmlns="http://www.w3.org/2000/svg" width="25.257" height="20.665" viewBox="0 0 25.257 20.665">
  <path id="相机" d="M63.905,137.184a.574.574,0,1,0,.574.574A.542.542,0,0,0,63.905,137.184Zm-11.48-5.74h5.74a.574.574,0,1,0,0-1.148h-5.74a.574.574,0,0,0,0,1.148Zm2.87,4.592a3.444,3.444,0,1,0,3.444,3.444A3.454,3.454,0,0,0,55.3,136.036Zm0,5.74a2.3,2.3,0,1,1,2.3-2.3A2.3,2.3,0,0,1,55.3,141.776ZM65.627,130.3h-2.3c-1.722,0-1.722-2.3-4.018-2.3H51.277c-2.3,0-2.3,2.3-4.018,2.3h-2.3a2.3,2.3,0,0,0-2.3,2.3v13.776a2.3,2.3,0,0,0,2.3,2.3H65.627a2.3,2.3,0,0,0,2.3-2.3V132.592A2.3,2.3,0,0,0,65.627,130.3Zm1.148,11.48H61.781a6.971,6.971,0,0,1-.517,1.148h5.511v3.444a1.151,1.151,0,0,1-1.148,1.148H44.963a1.151,1.151,0,0,1-1.148-1.148v-3.444h5.511a4.143,4.143,0,0,1-.517-1.148H43.815v-9.184a1.151,1.151,0,0,1,1.148-1.148h2.3c2.3,0,2.3-2.3,4.018-2.3h8.036c1.722,0,1.722,2.3,4.018,2.3h2.3a1.151,1.151,0,0,1,1.148,1.148ZM55.3,133.74a5.74,5.74,0,1,0,5.74,5.74A5.757,5.757,0,0,0,55.3,133.74Zm0,10.332a4.592,4.592,0,1,1,4.592-4.592A4.606,4.606,0,0,1,55.3,144.072Zm8.61-11.48a1.722,1.722,0,1,0,1.722,1.722A1.691,1.691,0,0,0,63.905,132.592Zm0,2.3a.574.574,0,1,1,.574-.574A.542.542,0,0,1,63.905,134.888Z" transform="translate(-42.667 -128)" fill="#b8b8b8"/>
</svg>
