<svg xmlns="http://www.w3.org/2000/svg" width="15.636" height="14.854" viewBox="0 0 15.636 14.854">
  <path id="child" d="M197.277,213.473a.977.977,0,1,1,.977-.977A.977.977,0,0,1,197.277,213.473Zm9.577,2.736a.782.782,0,1,1,.782-.782A.782.782,0,0,1,206.854,216.209Zm-7.427-7.036a6.255,6.255,0,1,0,4.3,10.8l-4.544-4.544,4.544-4.544A6.234,6.234,0,0,0,199.427,209.173Zm5.708,1.96-4.295,4.295,4.25,4.25a.391.391,0,0,1,.024.527l-.025.03a7.428,7.428,0,1,1,.066-9.534A.322.322,0,0,1,205.135,211.133Z" transform="translate(-192 -208)"/>
</svg>
