<svg xmlns="http://www.w3.org/2000/svg" width="15.847" height="17.349" viewBox="0 0 15.847 17.349">
  <path id="layered" d="M225.337,223.153h6.017a.446.446,0,0,1,.446.446v.446a.446.446,0,0,1-.446.446h-6.908a.446.446,0,0,1-.446-.446v-15.6a.446.446,0,0,1,.446-.446h13.816a.446.446,0,0,1,.446.446v7.577a.446.446,0,0,1-.446.446h-.446a.446.446,0,0,1-.446-.446v-6.685H225.337Zm1.783-12.033h2.674a.446.446,0,0,1,.446.446v.446a.446.446,0,0,1-.446.446H227.12a.446.446,0,0,1-.446-.446v-.446A.446.446,0,0,1,227.12,211.12Zm0,2.674h6.685a.446.446,0,0,1,.446.446v.446a.446.446,0,0,1-.446.446H227.12a.446.446,0,0,1-.446-.446v-.446A.446.446,0,0,1,227.12,213.794Zm8.022,10.028a3.343,3.343,0,1,1,3.343-3.343,3.343,3.343,0,0,1-3.343,3.343Zm0-1.337a2.006,2.006,0,1,0-2.006-2.006A2.006,2.006,0,0,0,235.142,222.485Zm4.614,2.266-.507.507a.31.31,0,0,1-.439,0l-1.452-1.452a.31.31,0,0,1,0-.439l.507-.507a.31.31,0,0,1,.439,0l1.452,1.452A.31.31,0,0,1,239.756,224.751Z" transform="translate(-224 -208)"/>
</svg>
