<svg xmlns="http://www.w3.org/2000/svg" width="14.947" height="14.947" viewBox="0 0 14.947 14.947">
  <path id="payment" d="M202.9,199.474h-6.489v1.969H202.9Zm0-.729v-.875h-6.489v.875Zm2.953.729a6.38,6.38,0,1,0-6.38,6.38A6.38,6.38,0,0,0,205.853,199.474Zm1.094,0A7.474,7.474,0,1,1,199.474,192,7.473,7.473,0,0,1,206.947,199.474Zm-11.119-2.552h7.656a.365.365,0,0,1,.365.365v4.739a.365.365,0,0,1-.365.365h-7.656a.365.365,0,0,1-.365-.365v-4.739A.365.365,0,0,1,195.828,196.922Zm1.458,3.281h1.823a.365.365,0,1,1,0,.729h-1.823a.365.365,0,1,1,0-.729Z" transform="translate(-192 -192)"/>
</svg>
