<svg xmlns="http://www.w3.org/2000/svg" width="13.188" height="15.216" viewBox="0 0 13.188 15.216">
  <path id="agreement_1_" data-name="agreement (1)" d="M236.094,177.094h-11v12.534l5.042-2.42a1.221,1.221,0,0,1,1.066,0l4.892,2.4ZM224.254,176h12.68a.254.254,0,0,1,.254.254v14.705a.254.254,0,0,1-.365.228l-6.1-2.992a.127.127,0,0,0-.11,0l-6.246,3a.254.254,0,0,1-.363-.229V176.254A.253.253,0,0,1,224.254,176Zm6.114,7.955a.6.6,0,0,1,.705,0l.761.552-.289-.895a.6.6,0,0,1,.218-.671l.76-.553h-.941a.6.6,0,0,1-.57-.415l-.292-.894-.292.894a.6.6,0,0,1-.571.415h-.941l.76.553a.6.6,0,0,1,.218.671l-.29.895ZM229.3,185.9a.6.6,0,0,1-.924-.672l.54-1.668-1.417-1.032a.6.6,0,0,1,.353-1.086l1.754,0,.543-1.667a.6.6,0,0,1,1.142,0l.544,1.667,1.754,0a.6.6,0,0,1,.353,1.086l-1.417,1.032.54,1.668a.6.6,0,0,1-.924.672l-1.419-1.029Zm.556-4.46h-.252l-.078.24A.347.347,0,0,1,229.857,181.44Z" transform="translate(-224 -176)"/>
</svg>
