<svg xmlns="http://www.w3.org/2000/svg" width="13.897" height="10.814" viewBox="0 0 13.897 10.814">
  <path id="favoriteslist" d="M192,272.821v-.573a.248.248,0,0,1,.248-.248h13.4a.248.248,0,0,1,.248.248v.573a.248.248,0,0,1-.248.248h-13.4A.248.248,0,0,1,192,272.821Zm0,4.632v-.573a.248.248,0,0,1,.248-.248H197.1a.248.248,0,0,1,.248.248v.573a.248.248,0,0,1-.248.248h-4.849A.248.248,0,0,1,192,277.453Zm12.339,1.711a1.162,1.162,0,0,0,.365-.839,1.262,1.262,0,0,0-1.306-1.211,1.318,1.318,0,0,0-1.173.68.481.481,0,0,1-.851,0,1.318,1.318,0,0,0-1.173-.68,1.261,1.261,0,0,0-1.306,1.211,1.161,1.161,0,0,0,.363.838.5.5,0,0,1,.074.091l2.388,2.407,2.574-2.448A.567.567,0,0,1,204.339,279.164Zm-6.406-.839a2.222,2.222,0,0,1,2.268-2.174,2.317,2.317,0,0,1,1.6.631,2.316,2.316,0,0,1,1.6-.631,2.222,2.222,0,0,1,2.268,2.174,2.119,2.119,0,0,1-.6,1.474.494.494,0,0,1-.056.062l-2.968,2.821a.481.481,0,0,1-.673-.01l-2.8-2.821a.486.486,0,0,1-.069-.088A2.116,2.116,0,0,1,197.933,278.325ZM192,282.085v-.573a.248.248,0,0,1,.248-.248H197.1a.248.248,0,0,1,.248.248v.573a.248.248,0,0,1-.248.248h-4.849A.248.248,0,0,1,192,282.085Z" transform="translate(-192 -272)"/>
</svg>
