<svg xmlns="http://www.w3.org/2000/svg" width="13.679" height="14.338" viewBox="0 0 13.679 14.338">
  <path id="answer" d="M184.894,192.773l.07,2a10.456,10.456,0,0,0,9.795-10.5l-2.057.072a.666.666,0,0,0-.078.008,8.416,8.416,0,0,1-.253,1.952c.135.152.382.409.823.825l.5.469-.286.622a11.415,11.415,0,0,1-4.654,5l-.7.406-.514-.625q-.316-.393-.664-.758C186.317,192.432,184.893,192.737,184.894,192.773Zm-.209,3.914a1.585,1.585,0,0,1-1.615-1.566l-.079-2.28a2.191,2.191,0,0,1,.49-1.7,1.544,1.544,0,0,1,1.133-.417,4.745,4.745,0,0,0,1.935-.4c.671-.364,1.3.132,1.918.817a9.538,9.538,0,0,0,2.9-3.13c-.8-.794-1.117-1.28-.934-1.867a6.525,6.525,0,0,0,.278-2.112c-.036-1.006.939-1.566,1.919-1.6l2.343-.083a1.587,1.587,0,0,1,1.678,1.565,12.361,12.361,0,0,1-11.908,12.77Z" transform="translate(-182.984 -182.349)"/>
</svg>
