<svg xmlns="http://www.w3.org/2000/svg" width="72.611" height="120.737" viewBox="0 0 72.611 120.737"><g transform="translate(0.5 -463.922)"><path d="M-532.041-6415.341h-.015c-3.1,0-6.279-.147-9.444-.438V-6534.4a64.379,64.379,0,0,1,14.5-1.682,58.284,58.284,0,0,1,23.4,4.8A55.538,55.538,0,0,1-484.6-6517.69a58.586,58.586,0,0,1,12.553,22.009,72.84,72.84,0,0,1,2.8,28.8,60.266,60.266,0,0,1-7.253,24.457,48.145,48.145,0,0,1-14.623,15.895C-504.519-6417.284-520.768-6415.342-532.041-6415.341Z" transform="translate(541 7000)" fill="#ecf2fe" opacity="0.27"/><g transform="translate(-59 -36)"><g transform="translate(76.452 622.334)" opacity="0.5"><path d="M1881.2,872.7a4.5,4.5,0,1,1,4.5,4.5A4.51,4.51,0,0,1,1881.2,872.7Z" transform="translate(-1867.465 -895.465)" fill="#3796f4"/></g></g></g></svg>