<svg xmlns="http://www.w3.org/2000/svg" width="94.32" height="95.158" viewBox="0 0 94.32 95.158"><path d="M-705.332-6403.856h0a55.158,55.158,0,0,1-23.041-4.951,44.809,44.809,0,0,1-9.737-6.082,37.166,37.166,0,0,1-7.53-8.39c-7.333-11.309-7.437-25.726-.3-41.693a53.376,53.376,0,0,1,12.331-17.835,46,46,0,0,1,15.946-9.547c11.644-4.219,25.081-4.762,39.306-5.336h.02c6.989-.283,14.215-.575,21.44-1.323v59.419a107.961,107.961,0,0,0-9.543,15.029,35.149,35.149,0,0,1-6.982,9.166,39.053,39.053,0,0,1-9.308,6.46A50.6,50.6,0,0,1-705.332-6403.856Z" transform="translate(751.222 6499.014)" fill="#ecf2fe" opacity="0.27"/></svg>