<svg xmlns="http://www.w3.org/2000/svg" width="27.078" height="37.681" viewBox="0 0 27.078 37.681">
  <defs>
    <style>
      .cls-1, .cls-2 {
        fill: #95989a;
      }

      .cls-2 {
        font-size: 9px;
        font-family: Arial-BoldItalicMT, Arial;
        font-weight: 700;
        font-style: italic;
      }
    </style>
  </defs>
  <g id="组_495" data-name="组 495" transform="translate(-156.139 -600.319)">
    <g id="船_1_" data-name="船 (1)" transform="translate(82.304 482.419)">
      <path id="路径_1544" data-name="路径 1544" class="cls-1" d="M128.975,382.035a.788.788,0,0,1-.733-.5l-4.434-11.211a.8.8,0,0,1,.016-.62.786.786,0,0,1,.459-.415l11.7-4a.784.784,0,0,1,.711.1.794.794,0,0,1,.33.638v13.934a.786.786,0,0,1-1.572,0v-12.83l-9.874,3.374,4.132,10.444a.788.788,0,0,1-.73,1.075Z" transform="translate(-48.349 -239.575)"/>
      <path id="路径_1545" data-name="路径 1545" class="cls-1" d="M503.606,382.478a.776.776,0,0,1-.289-.057.785.785,0,0,1-.44-1.019l4.27-10.789-9.874-3.374v12.673a.786.786,0,1,1-1.572,0V366.138a.787.787,0,0,1,1.041-.742l11.7,4a.786.786,0,0,1,.475,1.035l-4.576,11.554A.787.787,0,0,1,503.606,382.478Z" transform="translate(-408.598 -239.672)"/>
      <path id="路径_1546" data-name="路径 1546" class="cls-1" d="M95.809,254.478a17.23,17.23,0,0,1-4.884-.846,16.639,16.639,0,0,0-3.6-.73,9.634,9.634,0,0,0-3.145.484,14.968,14.968,0,0,1-4.311.664,8.759,8.759,0,0,1-5.815-2.368.787.787,0,0,1,1.126-1.1,6.564,6.564,0,0,0,1.3.947,7,7,0,0,0,3.409.95,13.4,13.4,0,0,0,3.887-.61,11.035,11.035,0,0,1,3.642-.538,18.206,18.206,0,0,1,3.934.783,15.705,15.705,0,0,0,4.459.786,5.636,5.636,0,0,0,3.154-.925,5,5,0,0,0,.635-.491.786.786,0,0,1,1.05,1.17A7.125,7.125,0,0,1,95.809,254.478Zm.494-13.091a.786.786,0,0,1-.786-.786v-5.928H80.252v1.28a.786.786,0,1,1-1.572,0v-2.066a.786.786,0,0,1,.786-.786H96.3a.786.786,0,0,1,.786.786V240.6a.786.786,0,0,1-.786.786Zm-16.837,0a.786.786,0,0,1-.786-.786v-1.359a.786.786,0,1,1,1.572,0V240.6A.786.786,0,0,1,79.466,241.386Z" transform="translate(0 -111.577)"/>
      <path id="路径_1547" data-name="路径 1547" class="cls-1" d="M361.071,123.1a.786.786,0,0,1-.786-.786v-2.837h-7.513v2.837a.786.786,0,1,1-1.572,0v-3.623a.786.786,0,0,1,.786-.786h9.085a.786.786,0,0,1,.786.786v3.623A.784.784,0,0,1,361.071,123.1Z" transform="translate(-268.643)"/>
    </g>
    <text id="BOAT" class="cls-2" transform="translate(157 636)"><tspan x="0" y="0">BOAT</tspan></text>
  </g>
</svg>
